<svg xmlns="http://www.w3.org/2000/svg" width="256" height="256" fill="none" viewBox="0 0 256 256" role="img" aria-label="Logo">
  <rect width="256" height="256" rx="60" fill="#242938"/>

  <g filter="url(#shadow)">
    <svg x="36" y="36" width="184" height="184" viewBox="0 0 512 512" fill="none" xmlns="http://www.w3.org/2000/svg">
      <path
        d="M63.7-161.7h-90.9v272.8h90.9zm0 363.7h363.7v-90.9H63.7zm0-363.7h363.7v-90.9H63.7z"
        fill="#8C52FF"
        fill-opacity="0.302"
        transform="translate(84.664 310.016)"
      />

      <path
        d="M48.2-177.1h-90.9V95.6h90.9zm0 363.6h363.7V95.6H48.2zm0-363.6h363.7V-268H48.2z"
        fill="#8C52FF"
        fill-opacity="0.502"
        transform="translate(71.406 296.758)"
      />

      <path
        d="M32.8-192.6h-90.9V80.2h90.9zm0 363.7h363.7V80.2H32.8zm0-363.7h363.7v-90.9H32.8z"
        fill="#8C52FF"
        transform="translate(58.147 283.5)"
      />
    </svg>
  </g>

  <defs>
    <filter id="shadow" x="20" y="20" width="216" height="216" color-interpolation-filters="sRGB" filterUnits="userSpaceOnUse">
      <feFlood flood-opacity="0" result="BackgroundImageFix"/>
      <feColorMatrix in="SourceAlpha" result="hardAlpha" type="matrix" values="0 0 0 0 0 0 0 0 0 0 0 0 0 0 0 0 0 0 127 0"/>
      <feOffset dy="4"/>
      <feGaussianBlur stdDeviation="8"/>
      <feColorMatrix type="matrix" values="0 0 0 0 0 0 0 0 0 0 0 0 0 0 0 0 0 0 0.18 0"/>
      <feBlend in2="BackgroundImageFix" mode="normal" result="effect1_dropShadow"/>
      <feBlend in="SourceGraphic" in2="effect1_dropShadow" mode="normal" result="shape"/>
    </filter>
  </defs>
</svg>