<svg xmlns="http://www.w3.org/2000/svg" width="256" height="256" fill="none" viewBox="0 0 256 256" role="img" aria-label="Logo">
  <rect width="256" height="256" rx="60" fill="#242938"/>

  <g filter="url(#shadow)">
    <!-- Barras del logo -->
    <rect x="112" y="20" width="32" height="104" fill="#FFFFFF" transform="rotate(0 128 128)"/>
    <rect x="112" y="20" width="32" height="104" fill="#FF005C" transform="rotate(36 128 128)"/>
    <rect x="112" y="20" width="32" height="104" fill="#CC33F2" transform="rotate(72 128 128)"/>
    <rect x="112" y="20" width="32" height="104" fill="#18B5D8" transform="rotate(108 128 128)"/>
    <rect x="112" y="20" width="32" height="104" fill="#16D8D2" transform="rotate(144 128 128)"/>
    <rect x="112" y="20" width="32" height="104" fill="#FFFFFF" transform="rotate(180 128 128)"/>
    <rect x="112" y="20" width="32" height="104" fill="#FF005C" transform="rotate(216 128 128)"/>
    <rect x="112" y="20" width="32" height="104" fill="#CC33F2" transform="rotate(252 128 128)"/>
    <rect x="112" y="20" width="32" height="104" fill="#18B5D8" transform="rotate(288 128 128)"/>
    <rect x="112" y="20" width="32" height="104" fill="#16D8D2" transform="rotate(324 128 128)"/>

    <!-- Centro negro tipo asterisco -->
    <polygon
      fill="#000000"
      points="
        143.5,80.4 140.9,110.2 168.5,98.6 148.9,121.2
        178,128 148.9,134.8 168.5,157.4 140.9,145.8
        143.5,175.6 128,150 112.5,175.6 115.1,145.8
        87.5,157.4 107.1,134.8 78,128 107.1,121.2
        87.5,98.6 115.1,110.2 112.5,80.4 128,106
      "
    />
  </g>

  <defs>
    <filter id="shadow" x="24" y="16" width="208" height="224" color-interpolation-filters="sRGB" filterUnits="userSpaceOnUse">
      <feFlood flood-opacity="0" result="BackgroundImageFix"/>
      <feColorMatrix in="SourceAlpha" result="hardAlpha" type="matrix" values="0 0 0 0 0 0 0 0 0 0 0 0 0 0 0 0 0 0 127 0"/>
      <feOffset dy="4"/>
      <feGaussianBlur stdDeviation="8"/>
      <feColorMatrix type="matrix" values="0 0 0 0 0 0 0 0 0 0 0 0 0 0 0 0 0 0 0.18 0"/>
      <feBlend in2="BackgroundImageFix" mode="normal" result="effect1_dropShadow"/>
      <feBlend in="SourceGraphic" in2="effect1_dropShadow" mode="normal" result="shape"/>
    </filter>
  </defs>
</svg>