<svg xmlns="http://www.w3.org/2000/svg" width="256" height="256" fill="none" viewBox="0 0 256 256" role="img" aria-label="Logo">
  <rect width="256" height="256" rx="60" fill="#FFFFFF"/>

  <svg x="24" y="95" width="208" height="66" viewBox="149 150 621 196" fill="none" xmlns="http://www.w3.org/2000/svg">
    <path
      d="M695 346a75 75 0 1 1 75-75 75 75 0 0 1-75 75m0-31a44 44 0 1 0-44-44 44 44 0 0 0 44 44m-157 31a75 75 0 1 1 75-75 75 75 0 0 1-75 75m0-31a44 44 0 1 0-44-44 44 44 0 0 0 44 44m-82-45c0 41.9-33.6 76-75 76s-75-34-75-75.9 30.5-74.1 75-74.1c16.4 0 31.6 3.5 44 12.6v-43.5c0-8.3 7.3-15.1 15.5-15.1s15.5 6.8 15.5 15.1Zm-75 45a44 44 0 1 0-44-44 44 44 0 0 0 44 44"
      fill="#8F8F8F"
    />
    <path
      d="M224 346a75 75 0 1 1 75-75 75 75 0 0 1-75 75m0-31a44 44 0 1 0-44-44 44 44 0 0 0 44 44"
      fill="#714B67"
    />
  </svg>
</svg>